<svg id="Vrstva_1" data-name="Vrstva 1" xmlns="http://www.w3.org/2000/svg" viewBox="0 0 465.64 475.61"><defs><style>.cls-1{fill:#4f46e5;}.cls-2{fill:#818cf8;}</style></defs><title>logo</title><path class="cls-1" d="M488,151.31c.28,3.9.84,7.8.79,11.69-.17,14.42-.57,28.83-.83,43.24-.11,5.82-.32,11.64,0,17.44.18,3.72-1.31,5.66-4.42,7.41-13.1,7.35-26.06,14.93-39.05,22.47a10.48,10.48,0,0,0-1.77,1.7,48.25,48.25,0,0,0-5,2.23q-15.25,8.81-30.43,17.73c-10.82,6.37-21.61,12.81-32.42,19.21-4.17,2.32-8.38,4.59-12.51,7q-25.93,15-51.83,30.06c-14.83,8.64-29.59,17.4-44.45,26-3.21,1.86-6.71,3.22-10.08,4.81.32-3.72.9-7.44.92-11.16.11-16.44,0-32.88.09-49.32,0-5.5.61-11,.94-16.5,10.95-6.42,21.94-12.79,32.84-19.28,5.78-3.44,11.42-7.11,17.12-10.67A29.87,29.87,0,0,0,312,253.7q26.52-15.4,53-30.92c3.15-1.85,6-4.22,9-6.35a40.08,40.08,0,0,0,6-2.07c3.49-1.84,6.83-4,10.22-6l30.09-17.94c8.59-4.9,17.21-9.76,25.77-14.71Q467.07,163.55,488,151.31Z" transform="translate(-23.18 -18.2)"/><path class="cls-1" d="M24,359.37c-.15-5.7-.45-11.39-.41-17.09.11-16.42.67-32.84.43-49.25-.11-7.15.59-12.13,8.29-15.74C44,271.77,55,264.41,66.2,257.8a30.16,30.16,0,0,0,3.08-2.38c6.07-3.36,12.17-6.65,18.2-10.08q15.06-8.59,30-17.33c6.54-3.83,13-7.81,19.49-11.73,2-1.09,4.07-2.15,6.06-3.29q20.38-11.73,40.73-23.5c11.71-6.77,23.39-13.59,35.11-20.34q18-10.38,36-20.67c0,3.1.05,6.21.06,9.31q0,25.65,0,51.28c0,5.33,0,10.66-.06,16-10.82,6.33-21.66,12.62-32.44,19-6.2,3.67-12.3,7.51-18.44,11.27a15,15,0,0,0-2.79.94q-27,15.72-54,31.54c-3.23,1.9-6.17,4.29-9.24,6.45a8.53,8.53,0,0,0-2.88.49q-21.73,12.69-43.41,25.52C84.82,324.15,77.88,328,71,331.92Q47.46,345.57,24,359.37Z" transform="translate(-23.18 -18.2)"/><path class="cls-1" d="M24,228.37c-.28-4.74-.84-9.47-.79-14.21.15-13.44.57-26.87.82-40.31.12-6.33.19-12.66.08-19a5.64,5.64,0,0,1,3.21-5.59Q60,130.5,92.57,111.58q44.36-25.8,88.65-51.71,34.92-20.32,69.95-40.49a23.58,23.58,0,0,1,2.74-1.14c3,2.05,1,4.92,1,7.33q.24,26.63,0,53.26c0,5.19-.61,10.37-.93,15.55-11.94,7.08-23.85,14.21-35.82,21.22-13.42,7.86-26.9,15.59-40.34,23.41q-23,13.35-45.89,26.74-20.13,11.75-40.25,23.52C84.82,193.15,77.88,197,71,200.92Q47.46,214.57,24,228.37Z" transform="translate(-23.18 -18.2)"/><path class="cls-1" d="M488,282.31c.28,4.24.84,8.48.79,12.71-.16,14.1-.57,28.2-.83,42.3-.11,6.16-.18,12.32-.07,18.47a5.66,5.66,0,0,1-3.19,5.61Q454.6,378.64,424.55,396c-18.71,10.89-37.29,22-56,32.91-15.27,8.91-30.68,17.61-46,26.48-18,10.45-36,21-54,31.48-3.43,2-7,3.69-10.52,5.53-.5-.73-1.42-1.46-1.43-2.19,0-3.25.31-6.5.32-9.75,0-15.59-.07-31.17.06-46.75,0-5.82.61-11.63.94-17.45,8.65-5.1,17.27-10.26,26-15.3,13.28-7.71,26.62-15.28,39.89-23q26.52-15.44,53-31,21.75-12.76,43.49-25.57c4.6-2.57,9.23-5.09,13.8-7.73Q461.07,298,488,282.31Z" transform="translate(-23.18 -18.2)"/><path class="cls-2" d="M254,94.38c.32-5.18.9-10.36.93-15.55q.18-26.62,0-53.26c0-2.41,2-5.28-1-7.33,1.6.1,3.51-.34,4.76.37q31,17.66,61.86,35.56C338.82,64.75,357.05,75.45,375.37,86c14.45,8.33,29,16.45,43.48,24.78,13.74,7.91,27.39,16,41.09,23.94,9.14,5.31,18.31,10.56,27.46,15.86.26.15.42.48.63.73q-21,12.19-42,24.39c-8.56,5-17.18,9.81-25.77,14.71-4.51-2.72-9-5.49-13.53-8.14-12.13-7.06-24.28-14.05-36.42-21.08l-34.27-19.83c-12.29-7.1-24.56-14.23-36.87-21.27C284.15,111.48,269.08,103,254,94.38Z" transform="translate(-23.18 -18.2)"/><path class="cls-2" d="M258,416.3c-.33,5.82-.89,11.63-.94,17.45-.13,15.58,0,31.16-.06,46.75,0,3.25-.35,6.5-.32,9.75,0,.73.93,1.46,1.43,2.19-.9,2-2.31,1.43-3.65.66q-12.88-7.41-25.74-14.87-18.42-10.71-36.81-21.45-34.71-20.14-69.45-40.23c-18.61-10.72-37.32-21.25-55.9-32C52.28,376.27,38.15,367.77,24,359.37Q47.49,345.63,71,331.92c6.84-4,13.78-7.77,20.68-11.65,2.6,1.7,5.14,3.51,7.82,5.08q17.1,10,34.26,19.92c12.3,7.11,24.62,14.16,36.92,21.27q16.93,9.79,33.85,19.64c11.72,6.79,23.4,13.63,35.16,20.33C245.73,409.92,251.89,413.05,258,416.3Z" transform="translate(-23.18 -18.2)"/><path class="cls-2" d="M24,228.37Q47.49,214.63,71,200.92c6.84-4,13.78-7.77,20.68-11.65,5.44,3.36,10.83,6.8,16.33,10.07,9.61,5.7,19.3,11.3,29,16.94-6.5,3.92-13,7.9-19.49,11.73q-15,8.76-30,17.33c-6,3.43-12.13,6.72-18.2,10.08C57.76,248.7,46.23,242,34.75,235.23,31.08,233.07,27.56,230.66,24,228.37Z" transform="translate(-23.18 -18.2)"/><path class="cls-2" d="M488,282.31q-27,15.69-53.95,31.37c-4.57,2.64-9.2,5.16-13.8,7.73a35.34,35.34,0,0,0-3.49-2.66q-20.93-12.21-41.89-24.32c10.81-6.4,21.6-12.84,32.42-19.21q15.18-8.93,30.43-17.73a48.25,48.25,0,0,1,5-2.23q16.59,9.76,33.19,19.54C480,277.23,484,279.8,488,282.31Z" transform="translate(-23.18 -18.2)"/><path class="cls-2" d="M256,362.28c-5.81-3-11.72-5.9-17.41-9.15-12.17-6.93-24.24-14.06-36.34-21.12q-26.9-15.7-53.78-31.44c-3.52-2.06-7-4.21-10.49-6.31,3.07-2.16,6-4.55,9.24-6.45q26.94-15.88,54-31.54a15,15,0,0,1,2.79-.94,11.47,11.47,0,0,1,2.32.76c11,6.35,22,12.8,33,19.1,6.14,3.5,12.41,6.75,18.62,10.11-.33,5.5-.9,11-.94,16.5-.12,16.44,0,32.88-.09,49.32C256.93,354.84,256.35,358.56,256,362.28Z" transform="translate(-23.18 -18.2)"/><path class="cls-2" d="M254.94,148.48a14.69,14.69,0,0,1,3.64,1q31.13,17.84,62.17,35.78,26.36,15.18,52.7,30.38c.25.15.37.52.55.79-3,2.13-5.84,4.5-9,6.35q-26.43,15.57-53,30.92a29.87,29.87,0,0,1-4.09,1.65,42.72,42.72,0,0,1-5-2.06c-8.72-4.95-17.42-9.93-26.07-15-7.37-4.33-14.65-8.81-22-13.22,0-5.33.06-10.66.06-16q0-25.63,0-51.28C255,154.69,255,151.58,254.94,148.48Z" transform="translate(-23.18 -18.2)"/></svg>